name rise43.5482peak65.4966fall89.1036.mot
datacolumns 19
datarows 20
range 5.77664900000000 5.80830400000000
endheader
time	ground_force1_vx	ground_force1_vy	ground_force1_vz	ground_force1_px	ground_force1_py	ground_force1_pz	ground_force2_vx	ground_force2_vy	ground_force2_vz	ground_force2_px	ground_force2_py	ground_force2_pz	ground_torque1_x	ground_torque1_y	ground_torque1_z	ground_torque2_x	ground_torque2_y	ground_torque2_z	
5.77664900000000	-38.98258500000000	815.52656500000001	50.48242100000000	0.08017600000000	0.00000000000000	0.09494500000000	-14.26518900000000	54.22699800000000	10.89424400000000	0.32412000000000	0.00000000000000	-0.07077300000000	0.00000000000000	15.87871800000000	0.00000000000000	0.00000000000000	4.95280900000000	0.00000000000000	
5.77830800000000	-39.79102500000000	813.90525300000002	50.43314700000000	0.07925400000000	0.00000000000000	0.09487800000000	-15.06516900000000	59.50354200000000	11.63551100000000	0.32504600000000	0.00000000000000	-0.07112400000000	0.00000000000000	15.84591700000000	0.00000000000000	0.00000000000000	5.32998500000000	0.00000000000000	
5.77997800000000	-40.61477600000000	812.14729899999998	50.36193100000000	0.07833300000000	0.00000000000000	0.09480800000000	-15.67314900000000	64.50790400000000	12.25463800000000	0.32591300000000	0.00000000000000	-0.07147100000000	0.00000000000000	15.81400600000000	0.00000000000000	0.00000000000000	5.65775800000000	0.00000000000000	
5.78164000000000	-41.45335200000000	810.25055199999997	50.26844600000000	0.07741200000000	0.00000000000000	0.09473600000000	-16.09081000000000	69.23125200000000	12.75123600000000	0.32672900000000	0.00000000000000	-0.07181500000000	0.00000000000000	15.78302700000000	0.00000000000000	0.00000000000000	5.93522800000000	0.00000000000000	
5.78330800000000	-42.30619300000000	808.21292000000005	50.15240600000000	0.07649000000000	0.00000000000000	0.09466100000000	-16.32780900000000	73.68725700000000	13.13051100000000	0.32749800000000	0.00000000000000	-0.07215700000000	0.00000000000000	15.75300800000000	0.00000000000000	0.00000000000000	6.16396000000000	0.00000000000000	
5.78497600000000	-43.17266300000000	806.03237799999999	50.01356900000000	0.07556900000000	0.00000000000000	0.09458400000000	-16.39992000000000	77.90778500000000	13.40203000000000	0.32822400000000	0.00000000000000	-0.07249600000000	0.00000000000000	15.72397300000000	0.00000000000000	0.00000000000000	6.34747800000000	0.00000000000000	
5.78664100000000	-44.05204700000000	803.70696599999997	49.85173900000000	0.07464700000000	0.00000000000000	0.09450500000000	-16.32700000000000	81.93783999999999	13.57833800000000	0.32891100000000	0.00000000000000	-0.07283300000000	0.00000000000000	15.69593000000000	0.00000000000000	0.00000000000000	6.49067900000000	0.00000000000000	
5.78830600000000	-44.94355400000000	801.23479599999996	49.66676100000000	0.07372400000000	0.00000000000000	0.09442300000000	-16.13097300000000	85.83030500000000	13.67357400000000	0.32956300000000	0.00000000000000	-0.07316800000000	0.00000000000000	15.66888200000000	0.00000000000000	0.00000000000000	6.59924400000000	0.00000000000000	
5.78997600000000	-45.84631500000000	798.61404900000002	49.45853100000000	0.07280000000000	0.00000000000000	0.09433900000000	-15.83398200000000	89.64095500000001	13.70219300000000	0.33018200000000	0.00000000000000	-0.07350100000000	0.00000000000000	15.64281700000000	0.00000000000000	0.00000000000000	6.67908600000000	0.00000000000000	
5.79164400000000	-46.75938500000000	795.84298400000000	49.22698800000000	0.07187600000000	0.00000000000000	0.09425300000000	-15.45684800000000	93.42408000000000	13.67787900000000	0.33076900000000	0.00000000000000	-0.07383300000000	0.00000000000000	15.61771600000000	0.00000000000000	0.00000000000000	6.73587100000000	0.00000000000000	
5.79331700000000	-47.68174300000000	792.91993600000001	48.97211900000000	0.07095000000000	0.00000000000000	0.09416400000000	-15.01788500000000	97.22896200000000	13.61270300000000	0.33132800000000	0.00000000000000	-0.07416300000000	0.00000000000000	15.59354600000000	0.00000000000000	0.00000000000000	6.77464500000000	0.00000000000000	
5.79497100000000	-48.61229200000000	789.84332400000005	48.69396000000000	0.07002300000000	0.00000000000000	0.09407300000000	-14.53210800000000	101.09733500000000	13.51654800000000	0.33185900000000	0.00000000000000	-0.07449200000000	0.00000000000000	15.57026700000000	0.00000000000000	0.00000000000000	6.79956800000000	0.00000000000000	
5.79664400000000	-49.54986400000000	786.61164799999995	48.39259300000000	0.06909500000000	0.00000000000000	0.09398000000000	-14.01083300000000	105.06183900000001	13.39679900000000	0.33236400000000	0.00000000000000	-0.07482000000000	0.00000000000000	15.54782300000000	0.00000000000000	0.00000000000000	6.81377100000000	0.00000000000000	
5.79831000000000	-50.49321500000000	783.22349599999995	48.06814700000000	0.06816500000000	0.00000000000000	0.09388400000000	-13.46161600000000	109.14540700000001	13.25826900000000	0.33284300000000	0.00000000000000	-0.07514700000000	0.00000000000000	15.52615300000000	0.00000000000000	0.00000000000000	6.81930300000000	0.00000000000000	
5.79997400000000	-51.44103100000000	779.67754900000000	47.72080200000000	0.06723300000000	0.00000000000000	0.09378600000000	-12.88848300000000	113.36147400000000	13.10333600000000	0.33329800000000	0.00000000000000	-0.07547200000000	0.00000000000000	15.50517900000000	0.00000000000000	0.00000000000000	6.81718200000000	0.00000000000000	
5.80164500000000	-52.39193100000000	775.97257800000000	47.35078000000000	0.06629900000000	0.00000000000000	0.09368600000000	-12.29237800000000	117.71483000000001	12.93222900000000	0.33372800000000	0.00000000000000	-0.07579600000000	0.00000000000000	15.48481800000000	0.00000000000000	0.00000000000000	6.80750500000000	0.00000000000000	
5.80331000000000	-53.34446500000000	772.10745599999996	46.95835500000000	0.06536200000000	0.00000000000000	0.09358400000000	-11.67175700000000	122.20293700000001	12.74342100000000	0.33413300000000	0.00000000000000	-0.07611900000000	0.00000000000000	15.46497300000000	0.00000000000000	0.00000000000000	6.78960800000000	0.00000000000000	
5.80497000000000	-54.29711900000000	768.08115299999997	46.54384300000000	0.06442300000000	0.00000000000000	0.09348000000000	-11.02325600000000	126.81753100000000	12.53408700000000	0.33451500000000	0.00000000000000	-0.07644000000000	0.00000000000000	15.44553800000000	0.00000000000000	0.00000000000000	6.76226100000000	0.00000000000000	
5.80665300000000	-55.24831900000000	763.89274599999999	46.10760700000000	0.06348200000000	0.00000000000000	0.09337300000000	-10.34237100000000	131.54633300000000	12.30056400000000	0.33487200000000	0.00000000000000	-0.07676000000000	0.00000000000000	15.42639500000000	0.00000000000000	0.00000000000000	6.72386000000000	0.00000000000000	
5.80830400000000	-56.19643000000000	759.54141600000003	45.65005600000000	0.06253800000000	0.00000000000000	0.09326500000000	-9.62409000000000	136.37471900000000	12.03879400000000	0.33520500000000	0.00000000000000	-0.07707900000000	0.00000000000000	15.40741900000000	0.00000000000000	0.00000000000000	6.67261900000000	0.00000000000000	
